<svg xmlns="http://www.w3.org/2000/svg" aria-hidden="true" style="position:absolute;width:0;height:0;overflow:hidden"><defs>
    <symbol id="bitten-chocolate" viewBox="0 0 24 24"><path d="M2.95799 15.0568L11.0406 1.9886L11.5206 1.48303L17.6974 5.6014L17.7397 8.08665L19.2472 10.5463L12.5874 21.1038L2.95799 15.0568Z" fill="#FCF1E0"/></symbol>
    <symbol id="chocolate-bar" viewBox="0 0 32 32"><path fill="#FD9222" d="m13.822 2.413 7.527 7.536.08-.08a.856.856 0 0 1 1.184-.013l.006.006.867.867c.305.305.315.77.083 1.094l-.004.007-.143.192 6.16 6.16c.55.55.55 1.43 0 1.98l-9.43 9.43c-.55.55-1.43.55-1.98 0l-4.447-4.447a.841.841 0 0 1-1.256.071l-2.6-2.6a.856.856 0 0 1-.013-1.184l.006-.007.077-.076-7.527-7.527c-.55-.55-.55-1.43 0-1.98l9.43-9.43c.55-.55 1.43-.55 1.98 0v.001Zm6.582 8.48-1.756-1.755a.592.592 0 0 0-.85 0l-3.58 3.58a.606.606 0 0 0 0 .86l1.749 1.749.61-.61-1.565-1.565 3.21-3.22 1.569 1.574.613-.613Zm-5.076 5.072-1.754-1.754a.592.592 0 0 0-.85 0l-3.58 3.58-.005.005-.005.005c-.24.23-.24.61 0 .85l1.752 1.752.616-.616-1.57-1.564 3.22-3.21 1.564 1.563.612-.611ZM8.822 8.193l3.58 3.58c.24.24.62.24.85-.01l3.58-3.58a.579.579 0 0 0 .18-.42h.01c0-.15-.06-.31-.18-.43l-3.58-3.58a.604.604 0 0 0-.86 0l-3.58 3.59c-.24.23-.24.61 0 .85Zm-5.07 5.07 3.58 3.58c.24.24.62.24.85 0l3.58-3.58a.58.58 0 0 0 .18-.43h.01c0-.16-.06-.31-.18-.43l-3.58-3.58a.592.592 0 0 0-.85 0l-3.59 3.59c-.24.23-.24.61 0 .85Zm6.933 8.754 2.362 2.363 9.636-13.04-.655-.655-11.343 11.332Z"/></symbol>
    <symbol id="coin" viewBox="0 0 28 28"><path fill="#FD9222" d="M14 .667C6.667.667.667 6.667.667 14s6 13.333 13.333 13.333 13.333-6 13.333-13.333S21.333.667 14 .667Zm0 24c-5.867 0-10.667-4.8-10.667-10.667S8.133 3.333 14 3.333c5.866 0 10.666 4.8 10.666 10.667S19.866 24.667 14 24.667Z"/><path fill="#FD9222" d="M15.733 12.667h-3.466c-.667 0-1.2-.534-1.2-1.2 0-.667.533-1.2 1.2-1.2H17.2c.8 0 1.333-.534 1.333-1.334S18 7.6 17.2 7.6h-1.867V6.4c0-.8-.533-1.333-1.333-1.333-.8 0-1.333.533-1.333 1.333v1.2h-.4A3.87 3.87 0 0 0 8.4 11.467a3.87 3.87 0 0 0 3.867 3.866H15.6c.667 0 1.2.534 1.2 1.2 0 .667-.533 1.2-1.2 1.2h-4.933c-.8 0-1.334.534-1.334 1.334s.534 1.333 1.334 1.333h2v1.2c0 .8.533 1.333 1.333 1.333.8 0 1.333-.533 1.333-1.333v-1.2h.4a3.87 3.87 0 0 0 3.867-3.867 3.87 3.87 0 0 0-3.867-3.866Z"/></symbol>
    <symbol id="spoon" viewBox="0 0 32 32"><path fill="#FD9222" d="M15.451 14.106a5.156 5.156 0 0 1-1.176-3.282c0-4.324 5.18-8.642 10.362-8.642a5.183 5.183 0 0 1 5.181 5.182c0 5.182-4.318 10.364-8.646 10.364a5.154 5.154 0 0 1-3.281-1.177L5.132 29.312a1.73 1.73 0 0 1-2.444-2.445L15.45 14.106Z"/></symbol>
    <symbol id="instagram" viewBox="0 0 32 32"><path d="M31.969 9.408c-.075-1.7-.35-2.869-.744-3.882a7.793 7.793 0 0 0-1.851-2.838A7.867 7.867 0 0 0 26.542.844C25.523.45 24.361.175 22.66.1 20.947.019 20.403 0 16.059 0s-4.888.019-6.595.094c-1.7.075-2.869.35-3.882.744a7.803 7.803 0 0 0-2.838 1.85A7.867 7.867 0 0 0 .9 5.52C.506 6.539.231 7.702.156 9.402c-.081 1.713-.1 2.257-.1 6.601s.019 4.888.094 6.595c.075 1.7.35 2.869.744 3.882a7.895 7.895 0 0 0 1.85 2.838 7.867 7.867 0 0 0 2.832 1.844c1.019.394 2.182.669 3.882.744 1.706.075 2.25.094 6.595.094s4.888-.019 6.595-.094c1.7-.075 2.869-.35 3.882-.744a8.181 8.181 0 0 0 4.682-4.682c.394-1.019.669-2.182.744-3.882.075-1.707.094-2.25.094-6.595s-.006-4.888-.081-6.595zm-2.882 13.065c-.069 1.563-.331 2.407-.55 2.969a5.307 5.307 0 0 1-3.038 3.038c-.563.219-1.413.481-2.969.55-1.688.075-2.194.094-6.464.094s-4.782-.019-6.464-.094c-1.563-.069-2.407-.331-2.969-.55a4.926 4.926 0 0 1-1.838-1.194 4.974 4.974 0 0 1-1.194-1.838c-.219-.563-.481-1.413-.55-2.969-.075-1.688-.094-2.194-.094-6.464s.019-4.782.094-6.464c.069-1.563.331-2.407.55-2.969a4.868 4.868 0 0 1 1.2-1.838A4.974 4.974 0 0 1 6.639 3.55c.563-.219 1.413-.481 2.969-.55 1.688-.075 2.194-.094 6.464-.094 4.276 0 4.782.019 6.464.094 1.563.069 2.407.331 2.969.55a4.914 4.914 0 0 1 1.838 1.194 4.974 4.974 0 0 1 1.194 1.838c.219.563.481 1.413.55 2.969.075 1.688.094 2.194.094 6.464s-.019 4.77-.094 6.458z"/><path d="M16.059 7.783c-4.538 0-8.22 3.682-8.22 8.22s3.682 8.22 8.22 8.22c4.539 0 8.22-3.682 8.22-8.22s-3.682-8.22-8.22-8.22zm0 13.552a5.333 5.333 0 0 1 0-10.664 5.332 5.332 0 0 1 0 10.664zM26.524 7.458a1.919 1.919 0 1 1-3.838 0 1.919 1.919 0 0 1 3.838 0z"/></symbol>
    <symbol id="twitter" viewBox="0 0 768 768"><path d="M666.656 168.384c-5.952 7.744-12.512 15.2-19.712 22.272-7.456 7.424-11.104 18.144-8.896 29.056 1.184 5.824 1.92 12.928 1.952 20.288 0 168.192-77.728 287.072-185.92 348.736-84.704 48.288-190.016 62.56-295.104 35.84 39.84-11.552 78.72-29.472 114.976-54.080 4.704-3.168 8.736-7.776 11.264-13.472 7.168-16.16-0.096-35.072-16.256-42.24-88.768-39.456-132.16-93.792-152.608-146.976-13.344-34.688-17.472-70.336-16.64-103.264 0.672-25.952 4.416-49.92 8.896-69.824 12.608 10.976 25.696 22.592 39.52 33.216 65.632 50.464 147.968 79.328 236.64 77.024 17.376-0.48 31.232-14.624 31.232-32v-32.352c-0.064-5.728 0.288-11.424 1.088-17.056 3.616-25.792 16.128-50.208 37.184-68.512 23.2-20.192 52.352-29.056 80.832-27.072s56.096 14.816 76.288 38.016c8.064 9.152 20.768 13.312 33.056 9.728 7.392-2.144 14.816-4.576 22.24-7.296zM717.568 69.856c-23.68 16.704-48.736 29.632-73.184 38.56-29.792-26.752-66.912-41.664-104.832-44.32-44.736-3.104-90.752 10.848-127.264 42.624-33.152 28.832-52.864 67.456-58.56 107.904-1.184 8.48-1.76 17.024-1.728 25.6-61.504-4.544-118.176-27.2-164.8-63.040-24.8-19.072-46.784-41.888-65.088-67.712-10.24-14.4-30.208-17.824-44.608-7.584-4.928 3.488-8.544 8.096-10.72 13.088 0 0-4.224 9.568-9.12 24.32-3.584 10.784-7.712 24.8-11.424 41.28-5.216 23.104-9.664 51.264-10.432 82.272-0.992 39.264 3.84 83.584 20.864 127.872 21.856 56.8 62.912 111.296 132.704 154.336-50.208 23.232-103.84 33.248-155.936 30.944-17.664-0.768-32.608 12.896-33.376 30.56-0.544 12.448 6.080 23.552 16.416 29.376 156.96 87.2 333.632 85.696 469.312 8.352 129.28-73.632 218.208-214.4 218.208-404.288-0.032-5.344-0.256-10.56-0.736-15.648 32.192-35.68 53.632-77.728 63.872-120.992 4.064-17.184-6.592-34.432-23.776-38.496-9.28-2.208-18.56-0.096-25.824 4.992z" /></symbol>
    <symbol id="menu-toggle" viewBox="0 0 32 32"><path stroke="#111" stroke-linecap="round" stroke-linejoin="round" stroke-width="2.5" d="M4 16h24M4 8h24M4 24h24"/></symbol>
    <symbol id="x-close" viewBox="0 0 28 28"><path stroke="#111" stroke-linecap="round" stroke-linejoin="round" stroke-width="2" d="M21 7 7 21M7 7l14 14"/></symbol>
    <symbol id="scroll-down" viewBox="0 0 22 22"><path fill="#FD9222" d="M11.651 12.283a.916.916 0 0 1-1.301 0l-4.2-4.207a.917.917 0 1 0-1.3 1.292l4.207 4.208a2.75 2.75 0 0 0 3.887 0l4.207-4.208a.916.916 0 0 0-1.301-1.292l-4.199 4.207Z"/></symbol>
    <symbol id="play" viewBox="0 0 44 44"><path fill="#F5F4F4" d="M15 33V12l20 10.5L15 33Z"/><circle cx="22" cy="22" r="21.5" stroke="#fff"/></symbol>
    <symbol id="slider-long" viewBox="0 0 28 13"><path fill="#FD9222" d="M21.5 0h-15a6.5 6.5 0 0 0 0 13h15a6.5 6.5 0 1 0 0-13Z"/></symbol>
    <symbol id="slider-dot" viewBox="0 0 13 13"><path fill="#111" fill-opacity=".1" d="M6.5 13a6.5 6.5 0 1 0 0-13 6.5 6.5 0 0 0 0 13Z"/></symbol></defs></svg>